<?xml version="1.0" encoding="UTF-8" ?>
<!DOCTYPE svg PUBLIC "-//W3C//DTD SVG 1.1//EN" "http://www.w3.org/Graphics/SVG/1.1/DTD/svg11.dtd">
<svg width="158pt" height="229pt" viewBox="0 0 158 229" version="1.1" xmlns="http://www.w3.org/2000/svg">
<g id="#fcfbfcff">
</g>
<g id="#ff1affff">
<path fill="#ff1aff" opacity="1.00" d=" M 49.90 7.86 C 75.66 -1.09 106.91 1.66 128.05 19.94 C 149.44 38.59 159.81 71.88 145.95 97.94 C 139.46 111.36 126.03 118.55 113.76 125.75 C 102.98 132.69 88.98 134.09 80.22 144.18 C 76.92 151.46 76.89 159.78 75.38 167.57 C 78.50 165.35 81.88 163.36 84.51 160.57 C 89.20 152.84 87.38 142.46 93.59 135.48 C 91.08 145.00 90.30 155.33 84.65 163.66 C 77.57 170.14 67.16 172.01 57.83 171.23 C 49.61 169.80 43.53 162.13 43.20 153.88 C 41.70 142.10 44.36 129.39 52.26 120.25 C 65.58 109.36 83.94 107.35 96.81 95.81 C 99.80 92.27 102.48 87.88 101.88 83.01 C 101.85 65.31 84.93 49.43 67.01 51.99 C 61.62 52.15 59.95 58.66 59.32 63.09 C 60.33 72.98 66.21 82.25 65.45 92.38 C 64.18 101.97 54.88 106.55 46.94 109.99 C 41.02 112.35 33.82 114.84 27.95 111.06 C 12.95 101.84 5.11 83.32 6.19 66.05 C 6.42 51.08 14.10 37.51 22.99 25.98 C 29.54 16.98 39.91 12.05 49.90 7.86 M 35.60 17.86 C 42.82 16.48 49.85 14.24 57.14 13.23 C 81.38 12.29 106.96 21.26 122.62 40.35 C 134.59 54.18 140.60 73.52 136.60 91.60 C 135.48 100.23 130.48 107.52 126.92 115.25 C 146.79 103.61 154.41 77.46 147.95 56.01 C 141.33 27.90 114.88 6.02 86.01 5.04 C 68.43 3.58 49.86 7.01 35.60 17.86 M 56.45 15.50 C 40.91 16.66 24.58 23.62 16.96 37.96 C 3.01 58.92 5.24 90.46 25.02 106.97 C 32.24 113.85 46.47 111.88 50.67 102.69 C 50.24 91.20 41.42 81.08 43.19 69.23 C 46.18 58.82 56.41 51.14 67.01 49.98 C 83.38 48.16 98.96 60.47 102.90 76.05 C 105.78 83.74 102.96 92.59 96.99 97.98 C 85.19 108.61 68.53 110.76 55.79 119.82 C 45.46 129.31 43.49 144.99 45.82 158.14 C 47.98 169.48 65.24 174.43 72.73 165.80 C 76.22 158.58 73.74 149.52 79.01 143.01 C 87.41 132.17 102.23 131.25 113.18 124.14 C 125.72 115.82 134.04 101.60 135.60 86.68 C 136.53 71.99 132.74 56.85 124.22 44.78 C 108.58 24.47 81.89 13.18 56.45 15.50 M 45.85 79.27 C 48.60 87.89 52.75 96.16 53.00 105.43 C 56.72 102.76 60.42 99.72 62.67 95.67 C 64.84 88.09 61.57 80.51 59.78 73.25 C 57.75 67.22 58.76 60.77 58.63 54.53 C 49.44 58.71 42.11 68.76 45.85 79.27 Z" />
<path fill="#ff1aff" opacity="1.00" d=" M 57.42 184.41 C 64.59 183.66 73.29 182.38 78.83 188.17 C 83.29 193.66 85.68 200.83 85.77 207.87 C 84.06 218.34 71.80 227.21 61.43 222.51 C 50.51 219.20 44.45 205.61 48.04 195.06 C 50.26 190.97 52.66 185.92 57.42 184.41 M 63.44 185.49 C 57.23 185.69 52.61 190.87 50.03 196.06 C 45.60 207.43 54.68 221.67 66.95 222.07 C 76.68 223.08 83.46 212.85 82.91 204.00 C 83.72 193.66 74.21 182.98 63.44 185.49 Z" />
</g>
</svg>
