<?xml version="1.0" encoding="UTF-8" ?>
<!DOCTYPE svg PUBLIC "-//W3C//DTD SVG 1.1//EN" "http://www.w3.org/Graphics/SVG/1.1/DTD/svg11.dtd">
<svg width="336pt" height="312pt" viewBox="0 0 336 312" version="1.1" xmlns="http://www.w3.org/2000/svg">
<g id="#fffefdff">
</g>
<g id="#f2c720ff">
<path fill="#f2c720" opacity="1.00" d=" M 148.48 6.85 C 166.12 5.58 184.42 4.20 201.59 9.42 C 223.13 14.05 243.55 23.59 261.01 36.98 C 299.56 66.03 323.25 114.57 320.14 163.01 C 320.83 180.00 316.47 196.64 310.28 212.30 C 291.36 262.75 243.10 300.86 189.57 307.31 C 167.63 308.83 144.97 309.70 123.93 302.18 C 69.94 286.45 27.35 237.87 18.70 182.33 C 17.71 172.25 17.87 162.11 17.83 152.00 C 16.64 123.72 27.09 95.91 42.60 72.64 C 66.42 36.87 106.06 12.84 148.48 6.85 M 70.20 75.21 C 61.54 90.28 58.70 108.18 60.35 125.38 C 62.37 110.81 64.12 94.76 74.38 83.35 C 79.10 77.09 88.74 76.48 94.20 81.82 C 105.73 93.15 107.70 110.09 109.94 125.30 C 110.20 106.44 108.47 85.95 96.57 70.43 C 93.40 67.54 89.82 63.98 85.01 64.99 C 78.02 64.04 73.51 70.14 70.20 75.21 M 224.71 72.72 C 214.78 88.21 211.80 107.27 213.34 125.38 C 215.57 110.31 217.08 92.96 229.04 82.04 C 233.52 76.58 242.38 77.12 247.06 81.95 C 258.66 93.18 260.70 110.11 262.94 125.30 C 263.20 106.44 261.47 85.95 249.57 70.42 C 246.40 67.54 242.81 63.99 238.00 64.98 C 232.25 64.08 228.00 68.73 224.71 72.72 M 170.37 137.37 C 133.97 139.38 98.29 150.19 66.10 167.14 C 61.99 168.21 62.69 172.34 63.75 175.61 C 72.41 212.01 93.37 246.27 125.01 266.98 C 151.69 284.25 187.47 283.84 215.19 269.15 C 232.31 259.25 246.70 244.50 255.95 227.00 C 264.73 209.22 271.72 189.73 270.37 169.58 C 269.16 162.51 261.75 158.78 255.65 156.38 C 228.11 146.88 199.58 138.93 170.37 137.37 Z" />
<path fill="#f2c720" opacity="1.00" d=" M 231.79 249.84 C 234.13 247.51 236.57 245.28 239.02 243.07 C 236.66 245.38 234.31 247.71 231.79 249.84 Z" />
</g>
<g id="#15140bff">
<path fill="#15140b" opacity="1.00" d=" M 70.20 75.21 C 73.51 70.14 78.02 64.04 85.01 64.99 C 89.82 63.98 93.40 67.54 96.57 70.43 C 108.47 85.95 110.20 106.44 109.94 125.30 C 107.70 110.09 105.73 93.15 94.20 81.82 C 88.74 76.48 79.10 77.09 74.38 83.35 C 64.12 94.76 62.37 110.81 60.35 125.38 C 58.70 108.18 61.54 90.28 70.20 75.21 Z" />
<path fill="#15140b" opacity="1.00" d=" M 224.71 72.72 C 228.00 68.73 232.25 64.08 238.00 64.98 C 242.81 63.99 246.40 67.54 249.57 70.42 C 261.47 85.95 263.20 106.44 262.94 125.30 C 260.70 110.11 258.66 93.18 247.06 81.95 C 242.38 77.12 233.52 76.58 229.04 82.04 C 217.08 92.96 215.57 110.31 213.34 125.38 C 211.80 107.27 214.78 88.21 224.71 72.72 Z" />
<path fill="#15140b" opacity="1.00" d=" M 170.37 137.37 C 199.58 138.93 228.11 146.88 255.65 156.38 C 261.75 158.78 269.16 162.51 270.37 169.58 C 271.72 189.73 264.73 209.22 255.95 227.00 C 246.70 244.50 232.31 259.25 215.19 269.15 C 187.47 283.84 151.69 284.25 125.01 266.98 C 93.37 246.27 72.41 212.01 63.75 175.61 C 62.69 172.34 61.99 168.21 66.10 167.14 C 98.29 150.19 133.97 139.38 170.37 137.37 M 114.68 153.72 C 98.16 158.30 81.22 162.77 66.57 171.99 C 69.64 192.12 79.42 210.57 90.82 227.19 C 107.02 250.36 132.17 268.80 160.98 270.97 C 185.81 272.07 212.88 267.06 231.79 249.84 C 234.31 247.71 236.66 245.38 239.02 243.07 C 245.71 236.87 251.01 229.28 255.11 221.17 C 263.25 204.41 269.42 185.54 265.56 166.77 C 242.17 157.18 218.07 148.98 193.05 144.94 C 166.62 141.41 140.23 147.52 114.68 153.72 Z" />
</g>
</svg>
