<?xml version="1.0" encoding="UTF-8" ?>
<!DOCTYPE svg PUBLIC "-//W3C//DTD SVG 1.1//EN" "http://www.w3.org/Graphics/SVG/1.1/DTD/svg11.dtd">
<svg width="251pt" height="233pt" viewBox="0 0 251 233" version="1.1" xmlns="http://www.w3.org/2000/svg">
<g id="#ffffffff">
<path fill="#ffffff" opacity="1.00" d=" M 43.65 46.67 C 45.16 38.07 55.38 33.21 63.42 35.46 C 85.40 55.69 105.41 78.02 127.31 98.37 C 148.01 81.19 166.75 61.76 185.67 42.65 C 187.90 40.69 189.94 37.97 193.03 37.35 C 197.23 36.81 200.63 40.13 203.91 42.14 C 207.70 44.24 210.98 48.15 209.97 52.87 C 204.05 63.42 193.40 69.70 185.81 78.80 C 174.73 92.03 159.95 101.79 150.15 116.16 C 147.45 120.68 152.73 124.67 155.21 127.78 C 171.12 143.86 188.66 158.39 203.17 175.83 C 204.64 177.78 205.85 179.88 206.82 182.12 C 206.02 186.62 203.11 190.38 201.26 194.47 C 196.05 194.84 189.55 197.21 185.42 192.57 C 172.01 181.03 159.54 168.43 146.49 156.48 C 139.35 150.13 132.89 142.63 124.20 138.33 C 115.28 150.25 104.04 160.08 93.83 170.83 C 86.42 178.40 79.82 186.84 71.69 193.68 C 66.48 198.93 57.65 196.98 53.04 191.97 C 49.89 189.98 47.38 185.70 48.90 181.99 C 50.60 177.42 54.51 174.21 57.70 170.70 C 74.37 154.08 91.13 137.54 107.64 120.75 C 88.97 100.64 68.93 81.84 49.70 62.27 C 45.77 58.16 42.15 52.66 43.65 46.67 Z" />
</g>
<g id="#db111cff">
<path fill="#db111c" opacity="1.00" d=" M 37.41 7.58 C 97.25 6.27 157.17 7.26 217.04 7.07 C 228.33 6.29 240.32 13.45 243.31 24.64 C 244.22 31.38 244.04 38.21 244.11 45.00 C 243.85 93.34 244.09 141.68 244.02 190.02 C 243.81 196.77 244.20 204.34 240.19 210.21 C 234.86 218.76 225.32 225.19 214.99 224.79 C 156.66 225.38 98.31 224.71 39.98 225.12 C 33.05 225.71 25.30 223.94 20.95 218.06 C 14.41 211.11 10.08 201.77 11.03 192.03 C 10.90 138.68 11.09 85.32 10.93 31.96 C 10.16 25.46 13.28 19.21 17.55 14.54 C 22.66 9.24 30.58 8.69 37.41 7.58 M 43.65 46.67 C 42.15 52.66 45.77 58.16 49.70 62.27 C 68.93 81.84 88.97 100.64 107.64 120.75 C 91.13 137.54 74.37 154.08 57.70 170.70 C 54.51 174.21 50.60 177.42 48.90 181.99 C 47.38 185.70 49.89 189.98 53.04 191.97 C 57.65 196.98 66.48 198.93 71.69 193.68 C 79.82 186.84 86.42 178.40 93.83 170.83 C 104.04 160.08 115.28 150.25 124.20 138.33 C 132.89 142.63 139.35 150.13 146.49 156.48 C 159.54 168.43 172.01 181.03 185.42 192.57 C 189.55 197.21 196.05 194.84 201.26 194.47 C 203.11 190.38 206.02 186.62 206.82 182.12 C 205.85 179.88 204.64 177.78 203.17 175.83 C 188.66 158.39 171.12 143.86 155.21 127.78 C 152.73 124.67 147.45 120.68 150.15 116.16 C 159.95 101.79 174.73 92.03 185.81 78.80 C 193.40 69.70 204.05 63.42 209.97 52.87 C 210.98 48.15 207.70 44.24 203.91 42.14 C 200.63 40.13 197.23 36.81 193.03 37.35 C 189.94 37.97 187.90 40.69 185.67 42.65 C 166.75 61.76 148.01 81.19 127.31 98.37 C 105.41 78.02 85.40 55.69 63.42 35.46 C 55.38 33.21 45.16 38.07 43.65 46.67 Z" />
</g>
</svg>
