<?xml version="1.0" encoding="UTF-8" ?>
<!DOCTYPE svg PUBLIC "-//W3C//DTD SVG 1.1//EN" "http://www.w3.org/Graphics/SVG/1.1/DTD/svg11.dtd">
<svg width="298pt" height="286pt" viewBox="0 0 298 286" version="1.1" xmlns="http://www.w3.org/2000/svg">
<g id="#dbd7d5ff">
<path fill="#dbd7d5" opacity="1.00" d=" M 116.86 73.97 C 128.12 70.88 139.24 66.68 150.97 65.84 C 165.93 66.77 181.58 68.27 194.65 76.27 C 201.57 80.15 206.02 86.92 211.77 92.18 C 215.58 95.49 217.64 100.22 219.52 104.79 C 221.96 111.50 226.21 117.68 226.72 124.98 C 227.02 132.13 226.58 139.47 223.97 146.21 C 219.04 158.11 211.34 169.27 200.56 176.57 C 192.65 181.62 184.59 186.73 175.52 189.43 C 163.35 192.96 150.60 194.48 137.94 193.70 C 132.95 193.14 129.60 197.35 126.04 200.07 C 120.70 204.78 113.61 206.37 107.37 209.47 C 103.88 211.27 99.90 210.12 96.20 210.59 C 93.35 211.46 90.43 212.13 87.63 213.18 C 88.92 208.99 92.51 206.43 95.35 203.37 C 99.81 198.11 104.42 191.44 103.01 184.18 C 100.42 180.99 96.60 179.18 93.47 176.59 C 88.18 172.22 83.31 167.25 79.55 161.49 C 72.96 149.93 70.66 135.93 73.80 122.94 C 76.63 112.68 82.07 103.13 89.67 95.66 C 94.40 90.62 100.97 87.73 105.47 82.45 C 108.58 78.84 112.14 75.29 116.86 73.97 Z" />
</g>
<g id="#5e9146ff">
<path fill="#5e9146" opacity="1.00" d=" M 35.87 12.95 C 44.05 8.26 53.65 6.58 63.00 6.64 C 117.33 6.82 171.67 6.75 226.00 6.73 C 233.38 6.82 240.86 6.46 248.13 8.02 C 257.84 10.48 266.74 16.20 272.77 24.23 C 278.76 31.74 281.61 41.42 281.64 50.95 C 281.71 73.97 281.90 96.98 281.88 120.00 C 282.47 138.72 281.95 157.45 282.46 176.17 C 282.75 191.11 282.53 206.06 282.70 221.00 C 282.73 225.87 282.86 230.76 282.37 235.61 C 281.74 242.28 278.55 248.32 277.12 254.82 C 274.53 265.56 272.61 277.05 265.64 286.00 L 33.26 286.00 C 31.18 282.02 28.76 278.23 26.59 274.30 C 23.45 268.53 22.33 261.99 19.95 255.92 C 17.68 250.00 15.27 244.06 14.36 237.75 C 13.15 230.22 13.83 222.58 13.72 215.00 C 13.60 161.64 14.28 108.30 14.39 54.94 C 14.35 44.69 16.21 33.86 22.44 25.45 C 26.28 20.68 30.66 16.22 35.87 12.95 M 116.86 73.97 C 112.14 75.29 108.58 78.84 105.47 82.45 C 100.97 87.73 94.40 90.62 89.67 95.66 C 82.07 103.13 76.63 112.68 73.80 122.94 C 70.66 135.93 72.96 149.93 79.55 161.49 C 83.31 167.25 88.18 172.22 93.47 176.59 C 96.60 179.18 100.42 180.99 103.01 184.18 C 104.42 191.44 99.81 198.11 95.35 203.37 C 92.51 206.43 88.92 208.99 87.63 213.18 C 90.43 212.13 93.35 211.46 96.20 210.59 C 99.90 210.12 103.88 211.27 107.37 209.47 C 113.61 206.37 120.70 204.78 126.04 200.07 C 129.60 197.35 132.95 193.14 137.94 193.70 C 150.60 194.48 163.35 192.96 175.52 189.43 C 184.59 186.73 192.65 181.62 200.56 176.57 C 211.34 169.27 219.04 158.11 223.97 146.21 C 226.58 139.47 227.02 132.13 226.72 124.98 C 226.21 117.68 221.96 111.50 219.52 104.79 C 217.64 100.22 215.58 95.49 211.77 92.18 C 206.02 86.92 201.57 80.15 194.65 76.27 C 181.58 68.27 165.93 66.77 150.97 65.84 C 139.24 66.68 128.12 70.88 116.86 73.97 Z" />
</g>
</svg>
