<?xml version="1.0" encoding="UTF-8" ?>
<!DOCTYPE svg PUBLIC "-//W3C//DTD SVG 1.1//EN" "http://www.w3.org/Graphics/SVG/1.1/DTD/svg11.dtd">
<svg width="64pt" height="64pt" viewBox="0 0 64 64" version="1.1" xmlns="http://www.w3.org/2000/svg">
<g id="#9a5c37fd">
<path fill="#9a5c37" opacity="1.00" d=" M 28.97 4.04 C 32.47 3.91 36.82 3.62 38.82 7.17 C 43.23 14.13 38.78 22.34 38.05 29.73 C 37.61 31.80 37.11 33.87 36.63 35.94 C 42.69 37.07 48.87 37.05 54.98 36.41 C 54.44 34.38 54.91 31.29 52.38 30.53 C 48.22 29.13 43.74 29.62 39.44 29.67 C 45.04 29.09 51.86 27.65 56.61 31.43 C 59.07 39.55 56.50 47.81 54.83 55.79 C 54.66 58.21 51.89 58.66 49.98 58.95 C 44.99 59.43 39.99 59.82 34.99 60.07 C 30.58 60.32 26.36 58.81 22.01 58.44 C 16.97 58.70 11.59 60.60 6.76 58.20 C 4.96 56.68 4.55 54.18 4.28 51.97 C 3.82 47.26 3.93 42.49 4.75 37.82 C 4.76 42.74 4.55 47.73 5.54 52.57 C 5.93 54.85 7.83 56.73 10.16 56.93 C 14.12 57.09 17.91 54.57 21.88 55.78 C 26.37 56.94 31.03 57.18 35.63 56.57 C 34.01 51.72 32.19 46.82 31.98 41.66 C 31.85 38.24 33.90 35.34 35.16 32.31 C 37.18 28.04 37.00 23.21 37.64 18.63 C 38.50 15.11 39.83 10.87 37.31 7.69 C 35.81 5.56 32.79 5.14 30.64 6.54 C 28.56 11.66 29.73 17.51 27.54 22.61 C 25.75 26.60 22.65 29.82 19.43 32.69 C 21.82 28.17 25.72 24.49 27.37 19.60 C 27.96 14.42 27.40 9.10 28.97 4.04 M 33.79 41.92 C 33.69 44.64 37.02 44.63 38.96 44.87 C 44.03 44.94 49.25 45.30 54.21 44.10 C 55.45 42.90 55.57 41.00 56.17 39.46 C 49.72 39.16 43.31 38.55 36.93 37.63 C 34.38 37.08 33.20 39.80 33.79 41.92 M 34.85 46.20 C 35.14 48.10 34.86 51.13 37.46 51.39 C 42.04 52.02 46.79 52.06 51.34 51.18 C 53.19 50.84 53.62 48.73 54.56 47.39 C 47.99 46.88 41.41 46.74 34.85 46.20 M 38.05 53.95 C 38.22 54.60 38.55 55.89 38.72 56.54 C 43.57 56.88 49.54 58.50 53.41 54.61 C 48.32 53.85 43.18 53.89 38.05 53.95 Z" />
</g>
<g id="#e7cca5ff">
<path fill="#e7cca5" opacity="1.00" d=" M 30.64 6.54 C 32.79 5.14 35.81 5.56 37.31 7.69 C 39.83 10.87 38.50 15.11 37.64 18.63 C 36.60 21.88 35.83 25.19 35.03 28.50 C 33.99 32.94 30.85 36.55 29.85 41.01 C 28.84 45.55 28.73 50.23 28.34 54.85 C 24.29 55.05 20.42 53.78 17.20 51.35 C 15.74 53.50 14.31 56.66 11.13 55.91 C 7.34 56.10 6.67 51.63 6.34 48.76 C 6.16 44.13 5.58 38.64 8.72 34.83 C 12.10 34.24 15.73 34.81 18.87 33.17 L 19.43 32.69 C 22.65 29.82 25.75 26.60 27.54 22.61 C 29.73 17.51 28.56 11.66 30.64 6.54 Z" />
<path fill="#e7cca5" opacity="1.00" d=" M 33.79 41.92 C 33.20 39.80 34.38 37.08 36.93 37.63 C 43.31 38.55 49.72 39.16 56.17 39.46 C 55.57 41.00 55.45 42.90 54.21 44.10 C 49.25 45.30 44.03 44.94 38.96 44.87 C 37.02 44.63 33.69 44.64 33.79 41.92 Z" />
</g>
<g id="#c28d67ff">
<path fill="#c28d67" opacity="1.00" d=" M 35.03 28.50 C 35.83 25.19 36.60 21.88 37.64 18.63 C 37.00 23.21 37.18 28.04 35.16 32.31 C 33.90 35.34 31.85 38.24 31.98 41.66 C 32.19 46.82 34.01 51.72 35.63 56.57 C 31.03 57.18 26.37 56.94 21.88 55.78 C 17.91 54.57 14.12 57.09 10.16 56.93 C 7.83 56.73 5.93 54.85 5.54 52.57 C 4.55 47.73 4.76 42.74 4.75 37.82 C 4.94 35.57 5.92 32.95 8.32 32.28 C 11.81 31.16 15.43 32.49 18.87 33.17 C 15.73 34.81 12.10 34.24 8.72 34.83 C 5.58 38.64 6.16 44.13 6.34 48.76 C 6.67 51.63 7.34 56.10 11.13 55.91 C 14.31 56.66 15.74 53.50 17.20 51.35 C 20.42 53.78 24.29 55.05 28.34 54.85 C 28.73 50.23 28.84 45.55 29.85 41.01 C 30.85 36.55 33.99 32.94 35.03 28.50 Z" />
</g>
<g id="#e3b893ff">
<path fill="#e3b893" opacity="1.00" d=" M 38.05 29.73 L 39.44 29.67 C 43.74 29.62 48.22 29.13 52.38 30.53 C 54.91 31.29 54.44 34.38 54.98 36.41 C 48.87 37.05 42.69 37.07 36.63 35.94 C 37.11 33.87 37.61 31.80 38.05 29.73 Z" />
<path fill="#e3b893" opacity="1.00" d=" M 34.85 46.20 C 41.41 46.74 47.99 46.88 54.56 47.39 C 53.62 48.73 53.19 50.84 51.34 51.18 C 46.79 52.06 42.04 52.02 37.46 51.39 C 34.86 51.13 35.14 48.10 34.85 46.20 Z" />
<path fill="#e3b893" opacity="1.00" d=" M 38.05 53.95 C 43.18 53.89 48.32 53.85 53.41 54.61 C 49.54 58.50 43.57 56.88 38.72 56.54 C 38.55 55.89 38.22 54.60 38.05 53.95 Z" />
</g>
</svg>
